<svg width="32" height="32" viewBox="0 0 32 32" fill="none" xmlns="http://www.w3.org/2000/svg">
<path d="M17.3431 17.2499L15.1219 19.4711C14.8911 19.7019 14.7784 19.9893 14.7837 20.3333C14.7891 20.6773 14.9071 20.9647 15.1379 21.1955C15.3687 21.4262 15.6596 21.5416 16.0107 21.5416C16.3618 21.5416 16.651 21.4262 16.8782 21.1955L21.0192 17.0544C21.3205 16.7532 21.4712 16.4017 21.4712 16C21.4712 15.5983 21.3205 15.2468 21.0192 14.9455L16.8622 10.7885C16.6314 10.5577 16.344 10.4423 16 10.4423C15.656 10.4423 15.3687 10.5577 15.1379 10.7885C14.9071 11.0192 14.7917 11.3102 14.7917 11.6613C14.7917 12.0125 14.9071 12.3016 15.1379 12.5288L17.3431 14.75H11C10.6459 14.75 10.349 14.8699 10.1095 15.1095C9.86987 15.3492 9.75008 15.6462 9.75008 16.0005C9.75008 16.3549 9.86987 16.6517 10.1095 16.891C10.349 17.1303 10.6459 17.2499 11 17.2499H17.3431ZM16.0028 31.8333C13.8129 31.8333 11.7546 31.4177 9.82767 30.5866C7.90075 29.7555 6.22461 28.6276 4.79925 27.2029C3.37386 25.7781 2.24543 24.1027 1.41396 22.1766C0.582484 20.2506 0.166748 18.1927 0.166748 16.0028C0.166748 13.8129 0.582304 11.7545 1.41342 9.8276C2.24453 7.90069 3.37244 6.22455 4.79716 4.79919C6.22192 3.3738 7.89732 2.24537 9.82337 1.4139C11.7494 0.582425 13.8074 0.166687 15.9972 0.166687C18.1871 0.166687 20.2455 0.582244 22.1724 1.41336C24.0993 2.24447 25.7755 3.37238 27.2008 4.7971C28.6262 6.22185 29.7547 7.89726 30.5861 9.82331C31.4176 11.7493 31.8333 13.8073 31.8333 15.9972C31.8333 18.1871 31.4178 20.2455 30.5867 22.1724C29.7556 24.0993 28.6276 25.7754 27.2029 27.2008C25.7782 28.6262 24.1028 29.7546 22.1767 30.5861C20.2507 31.4175 18.1927 31.8333 16.0028 31.8333ZM16 29.3333C19.7223 29.3333 22.875 28.0416 25.4584 25.4583C28.0417 22.875 29.3334 19.7222 29.3334 16C29.3334 12.2778 28.0417 9.12498 25.4584 6.54165C22.875 3.95831 19.7223 2.66665 16 2.66665C12.2778 2.66665 9.12504 3.95831 6.54171 6.54165C3.95837 9.12498 2.66671 12.2778 2.66671 16C2.66671 19.7222 3.95837 22.875 6.54171 25.4583C9.12504 28.0416 12.2778 29.3333 16 29.3333Z" fill="#3F3F3F"/>
</svg>
