<svg width="19" height="11" viewBox="0 0 19 11" fill="none" xmlns="http://www.w3.org/2000/svg">
<path d="M18.7481 1.62881L10.6154 9.74226C10.5116 9.84611 10.41 9.91983 10.3106 9.96343C10.2113 10.007 10.1077 10.0288 10 10.0288C9.89235 10.0288 9.78882 10.007 9.68947 9.96343C9.59011 9.91983 9.48851 9.84611 9.38467 9.74226L1.22697 1.58458C1.06671 1.42432 0.986572 1.24194 0.986572 1.03746C0.986572 0.832974 1.07504 0.650599 1.25197 0.490333C1.39941 0.326233 1.59236 0.252516 1.83082 0.269182C2.06929 0.28585 2.26224 0.3679 2.40967 0.515333L10 8.10573L17.6347 0.471108C17.7783 0.327524 17.9638 0.255733 18.1914 0.255733C18.419 0.255733 18.6045 0.327524 18.7481 0.471108C18.8956 0.618541 18.9693 0.81149 18.9693 1.04996C18.9693 1.28842 18.8956 1.48137 18.7481 1.62881Z" fill="#1C1B1F"/>
</svg>
