<svg width="28" height="30" viewBox="0 0 28 30" fill="none" xmlns="http://www.w3.org/2000/svg">
<path d="M5.13871 30C4.37482 30 3.72089 29.728 3.17692 29.184C2.63295 28.6401 2.36096 27.9861 2.36096 27.2222V4.16663H2.05538C1.66188 4.16663 1.33202 4.03306 1.0658 3.76592C0.799601 3.49881 0.666504 3.16779 0.666504 2.77288C0.666504 2.37799 0.799601 2.0486 1.0658 1.78471C1.33202 1.52082 1.66188 1.38888 2.05538 1.38888H8.6665C8.6665 0.990736 8.7996 0.659722 9.0658 0.395833C9.33199 0.131944 9.66185 0 10.0554 0H17.9443C18.3378 0 18.6677 0.133098 18.9339 0.399292C19.2001 0.665514 19.3332 0.995375 19.3332 1.38888H25.9443C26.3378 1.38888 26.6677 1.52244 26.9339 1.78958C27.2001 2.05672 27.3332 2.38774 27.3332 2.78263C27.3332 3.17754 27.2001 3.50693 26.9339 3.77079C26.6677 4.03468 26.3378 4.16663 25.9443 4.16663H25.6387V27.2222C25.6387 27.9861 25.3667 28.6401 24.8228 29.184C24.2788 29.728 23.6249 30 22.861 30H5.13871ZM22.861 4.16663H5.13871V27.2222H22.861V4.16663ZM9.1943 23.7222H11.972V7.63888H9.1943V23.7222ZM16.0276 23.7222H18.8054V7.63888H16.0276V23.7222Z" fill="#1C1B1F"/>
</svg>
