<svg width="144" height="68" viewBox="0 0 144 68" fill="none" xmlns="http://www.w3.org/2000/svg">
<rect width="144" height="51" rx="4" fill="#CC3333"/>
<path d="M17.7383 23.4941V25.709H12.2627V23.4941H17.7383ZM8.33398 26.7197H11.1904C11.2197 27.2178 11.3223 27.6338 11.498 27.9678C11.6797 28.3018 11.9404 28.5537 12.2803 28.7236C12.626 28.8936 13.0537 28.9785 13.5635 28.9785C14.0088 28.9785 14.3896 28.8965 14.7061 28.7324C15.0225 28.5684 15.2803 28.3223 15.4795 27.9941C15.6787 27.666 15.8252 27.2559 15.9189 26.7637C16.0127 26.2656 16.0596 25.6797 16.0596 25.0059V24.2148C16.0596 23.6699 16.0273 23.1836 15.9629 22.7559C15.8984 22.3223 15.7959 21.9502 15.6553 21.6396C15.5205 21.3232 15.3535 21.0625 15.1543 20.8574C14.9551 20.6523 14.7236 20.5 14.46 20.4004C14.1963 20.3008 13.9004 20.251 13.5723 20.251C13.0039 20.251 12.5498 20.3418 12.21 20.5234C11.8701 20.6992 11.6182 20.9629 11.4541 21.3145C11.2959 21.6602 11.2021 22.082 11.1729 22.5801H8.31641C8.4043 21.7012 8.65332 20.9189 9.06348 20.2334C9.47949 19.5479 10.0625 19.0088 10.8125 18.6162C11.5625 18.2236 12.4824 18.0273 13.5723 18.0273C14.3809 18.0273 15.1133 18.1709 15.7695 18.458C16.4258 18.7451 16.9883 19.1582 17.457 19.6973C17.9258 20.2363 18.2832 20.8867 18.5293 21.6484C18.7812 22.4102 18.9072 23.2715 18.9072 24.2324V25.0059C18.9072 25.9551 18.7842 26.8105 18.5381 27.5723C18.2979 28.334 17.9463 28.9844 17.4834 29.5234C17.0264 30.0566 16.4668 30.4668 15.8047 30.7539C15.1484 31.041 14.4014 31.1846 13.5635 31.1846C12.5205 31.1846 11.6182 30.9971 10.8564 30.6221C10.0947 30.2412 9.49707 29.7139 9.06348 29.04C8.62988 28.3662 8.38672 27.5928 8.33398 26.7197ZM28.9883 18.2031V20.4268H22.502V18.2031H28.9883ZM30.9746 18.2031V31H28.1094V18.2031H30.9746ZM22.2295 18.2031H25.0771L24.752 24.6719C24.6992 25.6387 24.6025 26.4795 24.4619 27.1943C24.3271 27.9033 24.1396 28.5039 23.8994 28.9961C23.665 29.4824 23.3809 29.875 23.0469 30.1738C22.7129 30.4668 22.3232 30.6777 21.8779 30.8066C21.4326 30.9355 20.9258 31 20.3574 31H19.6631V28.7852L19.9971 28.75C20.2783 28.7266 20.5215 28.6533 20.7266 28.5303C20.9375 28.4072 21.1191 28.2256 21.2715 27.9854C21.4238 27.7393 21.5498 27.4258 21.6494 27.0449C21.7549 26.6641 21.8369 26.2012 21.8955 25.6562C21.96 25.1113 22.0039 24.4727 22.0273 23.7402L22.2295 18.2031ZM35.8086 26.5703L40.6865 18.2031H43.543V31H40.6865V22.6416L35.8086 31H32.9521V18.2031H35.8086V26.5703ZM51.3125 18.2031V31H48.4561V18.2031H51.3125ZM55.2061 18.2031V20.4268H44.6416V18.2031H55.2061ZM63.4678 18.2031V31H60.6113V18.2031H63.4678ZM70.9297 18.2031L66.1748 25.8232H62.9053L62.5537 23.2656H64.6807L67.4668 18.2031H70.9297ZM67.9678 31L64.6807 25.3398L66.7109 23.3711L71.3604 31H67.9678ZM80.8613 18.2031V20.4268H74.375V18.2031H80.8613ZM82.8477 18.2031V31H79.9824V18.2031H82.8477ZM74.1025 18.2031H76.9502L76.625 24.6719C76.5723 25.6387 76.4756 26.4795 76.335 27.1943C76.2002 27.9033 76.0127 28.5039 75.7725 28.9961C75.5381 29.4824 75.2539 29.875 74.9199 30.1738C74.5859 30.4668 74.1963 30.6777 73.751 30.8066C73.3057 30.9355 72.7988 31 72.2305 31H71.5361V28.7852L71.8701 28.75C72.1514 28.7266 72.3945 28.6533 72.5996 28.5303C72.8105 28.4072 72.9922 28.2256 73.1445 27.9854C73.2969 27.7393 73.4229 27.4258 73.5225 27.0449C73.6279 26.6641 73.71 26.2012 73.7686 25.6562C73.833 25.1113 73.877 24.4727 73.9004 23.7402L74.1025 18.2031ZM87.6816 26.5703L92.5596 18.2031H95.416V31H92.5596V22.6416L87.6816 31H84.8252V18.2031H87.6816V26.5703ZM98.8613 18.2031H101.234L104.311 27.3525L107.378 18.2031H109.751L105.269 31H103.344L98.8613 18.2031ZM97.4902 18.2031H99.9072L100.355 27.6865V31H97.4902V18.2031ZM108.705 18.2031H111.131V31H108.257V27.6865L108.705 18.2031ZM118.733 20.6377L115.429 31H112.37L117.107 18.2031H119.041L118.733 20.6377ZM121.476 31L118.162 20.6377L117.819 18.2031H119.779L124.534 31H121.476ZM121.335 26.2363V28.4512H114.664V26.2363H121.335ZM130.484 18.2031V31H127.628V18.2031H130.484ZM134.378 18.2031V20.4268H123.813V18.2031H134.378Z" fill="white"/>
<path d="M73.6985 65.2683C72.9159 66.5269 71.0841 66.5269 70.3015 65.2683L61.7758 51.556C60.9474 50.2238 61.9055 48.5 63.4742 48.5L80.5258 48.5C82.0945 48.5 83.0526 50.2238 82.2242 51.556L73.6985 65.2683Z" fill="#CC3333"/>
</svg>
