<svg width="22" height="22" viewBox="0 0 22 22" fill="none" stroke="white" xmlns="http://www.w3.org/2000/svg">
<path d="M6.16215 1H3.10526C1.94256 1 1 1.94256 1 3.10526C1 12.9883 9.01175 21 18.8947 21C20.0574 21 21 20.0574 21 18.8947V15.8379C21 14.9292 20.4468 14.112 19.6031 13.7746L16.6746 12.6032C15.9167 12.3 15.0537 12.4367 14.4266 12.9593L13.6701 13.5897C12.7872 14.3255 11.4888 14.2666 10.6761 13.4539L8.54609 11.3239C7.73338 10.5112 7.67449 9.21284 8.41028 8.32989L9.04071 7.57337C9.56325 6.94632 9.69998 6.08328 9.39684 5.32542L8.22543 2.39691C7.88796 1.55322 7.07083 1 6.16215 1Z" stroke-width="2" stroke-linecap="round" stroke-linejoin="round"/>
</svg>
