<svg width="18" height="18" viewBox="0 0 18 18" fill="none" xmlns="http://www.w3.org/2000/svg">
<path d="M7.99967 10.0001H1.33301C1.04967 10.0001 0.812174 9.90423 0.620508 9.7125C0.428841 9.52074 0.333008 9.28314 0.333008 8.9997C0.333008 8.71623 0.428841 8.47878 0.620508 8.28733C0.812174 8.09589 1.04967 8.00016 1.33301 8.00016H7.99967V1.3335C7.99967 1.05016 8.09554 0.812663 8.28727 0.620996C8.47903 0.429329 8.71663 0.333496 9.00007 0.333496C9.28354 0.333496 9.521 0.429329 9.71244 0.620996C9.90389 0.812663 9.99961 1.05016 9.99961 1.3335V8.00016H16.6663C16.9496 8.00016 17.1871 8.09603 17.3788 8.28776C17.5704 8.47952 17.6663 8.71712 17.6663 9.00056C17.6663 9.28403 17.5704 9.52149 17.3788 9.71293C17.1871 9.90438 16.9496 10.0001 16.6663 10.0001H9.99961V16.6668C9.99961 16.9501 9.90374 17.1876 9.71201 17.3793C9.52025 17.5709 9.28265 17.6668 8.99921 17.6668C8.71574 17.6668 8.47829 17.5709 8.28684 17.3793C8.0954 17.1876 7.99967 16.9501 7.99967 16.6668V10.0001Z" fill="#1C1B1F"/>
</svg>
