<svg width="18" height="16" viewBox="0 0 18 16" fill="none" xmlns="http://www.w3.org/2000/svg">
<path d="M2.92272 15.75C2.71014 15.75 2.53205 15.6781 2.38847 15.5344C2.24489 15.3906 2.1731 15.2125 2.1731 15V8.69228H0.923071C0.710571 8.69228 0.532446 8.62038 0.388696 8.47658C0.244962 8.33276 0.173096 8.15456 0.173096 7.94198C0.173096 7.72938 0.244962 7.55129 0.388696 7.40771C0.532446 7.26412 0.710571 7.19233 0.923071 7.19233H4.92307C5.13557 7.19233 5.31369 7.26424 5.45742 7.40806C5.60117 7.55186 5.67305 7.73006 5.67305 7.94266C5.67305 8.15524 5.60117 8.33332 5.45742 8.47691C5.31369 8.62049 5.13557 8.69228 4.92307 8.69228H3.67305V15C3.67305 15.2125 3.60114 15.3906 3.45732 15.5344C3.31352 15.6781 3.13532 15.75 2.92272 15.75ZM2.92272 4.80768C2.71014 4.80768 2.53205 4.73581 2.38847 4.59206C2.24489 4.44832 2.1731 4.27021 2.1731 4.05771V1.00001C2.1731 0.787506 2.245 0.609381 2.3888 0.465631C2.53261 0.321898 2.71081 0.250031 2.9234 0.250031C3.136 0.250031 3.31409 0.321898 3.45767 0.465631C3.60125 0.609381 3.67305 0.787506 3.67305 1.00001V4.05771C3.67305 4.27021 3.60114 4.44832 3.45732 4.59206C3.31352 4.73581 3.13532 4.80768 2.92272 4.80768ZM7 4.80768C6.7875 4.80768 6.60938 4.73577 6.46565 4.59196C6.3219 4.44816 6.25002 4.26996 6.25002 4.05736C6.25002 3.84477 6.3219 3.66669 6.46565 3.52311C6.60938 3.37952 6.7875 3.30773 7 3.30773H8.25002V1.00001C8.25002 0.787506 8.32192 0.609381 8.46572 0.465631C8.60954 0.321898 8.78774 0.250031 9.00032 0.250031C9.21292 0.250031 9.39101 0.321898 9.5346 0.465631C9.67818 0.609381 9.74997 0.787506 9.74997 1.00001V3.30773H11C11.2125 3.30773 11.3906 3.37963 11.5344 3.52343C11.6781 3.66725 11.75 3.84545 11.75 4.05803C11.75 4.27063 11.6781 4.44872 11.5344 4.59231C11.3906 4.73589 11.2125 4.80768 11 4.80768H7ZM8.99967 15.75C8.78707 15.75 8.60898 15.6781 8.4654 15.5344C8.32181 15.3906 8.25002 15.2125 8.25002 15V7.94231C8.25002 7.72981 8.32192 7.55169 8.46572 7.40796C8.60954 7.26421 8.78774 7.19233 9.00032 7.19233C9.21292 7.19233 9.39101 7.26421 9.5346 7.40796C9.67818 7.55169 9.74997 7.72981 9.74997 7.94231V15C9.74997 15.2125 9.67807 15.3906 9.53427 15.5344C9.39045 15.6781 9.21225 15.75 8.99967 15.75ZM15.0766 15.75C14.864 15.75 14.6859 15.6781 14.5423 15.5344C14.3987 15.3906 14.3269 15.2125 14.3269 15V12.6923H13.0769C12.8644 12.6923 12.6863 12.6204 12.5426 12.4766C12.3988 12.3328 12.3269 12.1546 12.3269 11.942C12.3269 11.7294 12.3988 11.5513 12.5426 11.4077C12.6863 11.2641 12.8644 11.1923 13.0769 11.1923H17.0769C17.2894 11.1923 17.4675 11.2642 17.6113 11.4081C17.755 11.5519 17.8269 11.7301 17.8269 11.9427C17.8269 12.1552 17.755 12.3333 17.6113 12.4769C17.4675 12.6205 17.2894 12.6923 17.0769 12.6923H15.8269V15C15.8269 15.2125 15.755 15.3906 15.6112 15.5344C15.4674 15.6781 15.2892 15.75 15.0766 15.75ZM15.0766 8.80768C14.864 8.80768 14.6859 8.73581 14.5423 8.59206C14.3987 8.44832 14.3269 8.27021 14.3269 8.05771V1.00001C14.3269 0.787506 14.3989 0.609381 14.5427 0.465631C14.6865 0.321898 14.8647 0.250031 15.0773 0.250031C15.2899 0.250031 15.4679 0.321898 15.6115 0.465631C15.7551 0.609381 15.8269 0.787506 15.8269 1.00001V8.05771C15.8269 8.27021 15.755 8.44832 15.6112 8.59206C15.4674 8.73581 15.2892 8.80768 15.0766 8.80768Z" fill="#1C1B1F"/>
</svg>
