<svg width="122" height="121" viewBox="0 0 122 121" fill="none" xmlns="http://www.w3.org/2000/svg">
<mask id="path-1-inside-1_133_738" fill="white">
<path d="M64.1214 37.5912C63.0438 38.6694 63.0438 40.417 64.1219 41.4952C65.2001 42.5734 66.9478 42.5732 68.0254 41.4947L70.3045 39.2146C71.1243 38.3945 71.3443 37.1495 70.8549 36.0981C69.334 32.8298 68.5628 29.4486 68.5628 26.048C68.5628 19.1252 71.5761 12.6049 76.6588 8.09991L76.6676 26.1698C76.6679 27.0749 77.1123 27.9226 77.8564 28.438L90.9524 37.507C91.8973 38.1612 93.149 38.1618 94.0941 37.5076L107.195 28.4432C107.94 27.9276 108.385 27.0793 108.385 26.1728L108.383 8.10405C113.465 12.6049 116.478 19.12 116.48 26.037C116.48 32.4384 113.988 38.4569 109.462 42.9836C104.94 47.5071 98.9297 49.9973 92.5354 49.9973C92.5293 49.9973 92.523 49.9973 92.5166 49.9973C90.3165 49.9956 85.9976 48.9304 84.519 48.5199C83.5603 48.2532 82.5319 48.524 81.8283 49.2274L73.4368 57.6198C72.3589 58.6978 72.3589 60.4457 73.4368 61.5239C73.9758 62.0627 74.6822 62.3324 75.3885 62.3324C76.0948 62.3324 76.8015 62.0627 77.3402 61.5239L84.6142 54.2491C86.6421 54.7507 90.128 55.5164 92.5122 55.5181C92.5205 55.5181 92.5274 55.5181 92.5354 55.5181C100.403 55.5178 107.801 52.4529 113.366 46.8868C118.934 41.3175 122 33.913 122 26.0364C121.998 15.4271 116.241 5.58905 106.978 0.361125C106.124 -0.121117 105.077 -0.113664 104.23 0.381276C103.382 0.876216 102.861 1.78384 102.861 2.76543L102.864 24.7264L92.5238 31.8802L82.1877 24.7217L82.1769 2.75908C82.1764 1.77776 81.655 0.870419 80.8076 0.376031C79.9602 -0.118633 78.9138 -0.125534 78.0593 0.356984C68.7969 5.5896 63.043 15.4337 63.043 26.0478C63.043 29.633 63.7275 33.1845 65.0808 36.632L64.1214 37.5912Z"/>
<path d="M56.8126 74.246L18.5226 112.54C17.0837 113.98 15.1709 114.773 13.1366 114.775C13.1352 114.775 13.1341 114.775 13.1325 114.775C11.0988 114.774 9.18568 113.982 7.74706 112.543C6.30872 111.103 5.51765 109.187 5.52013 107.149C5.52234 105.116 6.31479 103.208 7.75507 101.773L40.6895 68.8329C41.7673 67.7549 41.7673 66.0073 40.6895 64.9291C39.6116 63.8514 37.8639 63.8512 36.786 64.9294L3.85518 97.8659C1.37321 100.34 0.00414969 103.634 9.39545e-06 107.143C-0.0041309 110.657 1.36024 113.96 3.84276 116.446C6.32528 118.929 9.62427 120.296 13.1325 120.296C13.135 120.296 13.1375 120.296 13.1397 120.296C16.6482 120.294 19.9466 118.925 22.4269 116.443L60.7161 78.15C61.794 77.0721 61.794 75.3242 60.7161 74.246C59.638 73.1683 57.8905 73.1683 56.8126 74.246Z"/>
<path d="M13.0933 103.797C12.1841 103.798 11.3301 104.153 10.6996 104.787C9.37282 106.105 9.36619 108.26 10.6847 109.589C10.6881 109.593 10.6914 109.596 10.6947 109.6C11.3557 110.259 12.2236 110.589 13.0927 110.589C13.9639 110.589 14.8364 110.257 15.5024 109.593C16.8234 108.265 16.8196 106.11 15.4994 104.794C14.8576 104.151 14.0042 103.797 13.0955 103.797C13.0949 103.797 13.0941 103.797 13.0933 103.797Z"/>
<path d="M103.337 89.8036C103.051 89.5179 102.706 89.2985 102.326 89.1604L94.4104 86.2902L65.8181 57.6952L70.4395 53.0737C71.5173 51.9958 71.5176 50.2479 70.4395 49.1697C69.6213 48.3521 68.4176 48.1544 67.4135 48.5779L24.1661 5.33233C21.5505 2.70802 18.0672 1.26046 14.3577 1.25605C14.3522 1.25605 14.3472 1.25605 14.3417 1.25605C10.6323 1.25605 7.14561 2.69863 4.52204 5.31936C1.89516 7.94643 0.449646 11.4378 0.451854 15.1505C0.453786 18.8602 1.90041 22.3483 4.52453 24.9712L47.7724 68.2203C47.349 69.2243 47.5461 70.4281 48.3642 71.2463C49.4424 72.3239 51.1901 72.3245 52.2677 71.2463L56.888 66.6256L85.4806 95.2201L88.351 103.136C88.4887 103.516 88.7081 103.862 88.9941 104.147L105.037 120.191C105.577 120.73 106.283 121 106.989 121C107.696 121 108.402 120.73 108.941 120.191L119.38 109.752C119.897 109.234 120.188 108.532 120.188 107.8C120.188 107.068 119.897 106.366 119.38 105.848L103.337 89.8036ZM59.9623 55.7433C59.9565 55.7491 59.9504 55.7555 59.9446 55.7613L51.5329 64.1736L8.42745 21.0669C6.8453 19.4855 5.97336 17.3834 5.97225 15.1478C5.97115 12.9107 6.84227 10.8068 8.42441 9.22449C10.0046 7.64582 12.1057 6.77712 14.3417 6.77712C14.345 6.77712 14.3484 6.77712 14.3514 6.77712C16.5852 6.77961 18.6819 7.65079 20.259 9.23305L63.3665 52.3392L59.9802 55.7256C59.9744 55.7314 59.9684 55.7372 59.9623 55.7433ZM106.989 114.336L93.3317 100.677L90.4614 92.7611C90.3237 92.3813 90.1042 92.036 89.8183 91.7503L60.7917 62.7219L61.9146 61.5992L90.9408 90.6279C91.2268 90.9136 91.5718 91.133 91.9516 91.271L99.8671 94.1413L113.525 107.8L106.989 114.336Z"/>
<path d="M16.2799 13.1793C15.2021 12.1017 13.4543 12.1017 12.3765 13.1793C11.2986 14.2573 11.2986 16.0051 12.3765 17.0834L50.4537 55.1631C50.9925 55.7019 51.6991 55.9716 52.4054 55.9716C53.1118 55.9716 53.8184 55.7019 54.3572 55.1631C55.435 54.0851 55.435 52.3373 54.3572 51.259L16.2799 13.1793Z"/>
</mask>
<path d="M64.1214 37.5912C63.0438 38.6694 63.0438 40.417 64.1219 41.4952C65.2001 42.5734 66.9478 42.5732 68.0254 41.4947L70.3045 39.2146C71.1243 38.3945 71.3443 37.1495 70.8549 36.0981C69.334 32.8298 68.5628 29.4486 68.5628 26.048C68.5628 19.1252 71.5761 12.6049 76.6588 8.09991L76.6676 26.1698C76.6679 27.0749 77.1123 27.9226 77.8564 28.438L90.9524 37.507C91.8973 38.1612 93.149 38.1618 94.0941 37.5076L107.195 28.4432C107.94 27.9276 108.385 27.0793 108.385 26.1728L108.383 8.10405C113.465 12.6049 116.478 19.12 116.48 26.037C116.48 32.4384 113.988 38.4569 109.462 42.9836C104.94 47.5071 98.9297 49.9973 92.5354 49.9973C92.5293 49.9973 92.523 49.9973 92.5166 49.9973C90.3165 49.9956 85.9976 48.9304 84.519 48.5199C83.5603 48.2532 82.5319 48.524 81.8283 49.2274L73.4368 57.6198C72.3589 58.6978 72.3589 60.4457 73.4368 61.5239C73.9758 62.0627 74.6822 62.3324 75.3885 62.3324C76.0948 62.3324 76.8015 62.0627 77.3402 61.5239L84.6142 54.2491C86.6421 54.7507 90.128 55.5164 92.5122 55.5181C92.5205 55.5181 92.5274 55.5181 92.5354 55.5181C100.403 55.5178 107.801 52.4529 113.366 46.8868C118.934 41.3175 122 33.913 122 26.0364C121.998 15.4271 116.241 5.58905 106.978 0.361125C106.124 -0.121117 105.077 -0.113664 104.23 0.381276C103.382 0.876216 102.861 1.78384 102.861 2.76543L102.864 24.7264L92.5238 31.8802L82.1877 24.7217L82.1769 2.75908C82.1764 1.77776 81.655 0.870419 80.8076 0.376031C79.9602 -0.118633 78.9138 -0.125534 78.0593 0.356984C68.7969 5.5896 63.043 15.4337 63.043 26.0478C63.043 29.633 63.7275 33.1845 65.0808 36.632L64.1214 37.5912Z" fill="#CC3333"/>
<path d="M56.8126 74.246L18.5226 112.54C17.0837 113.98 15.1709 114.773 13.1366 114.775C13.1352 114.775 13.1341 114.775 13.1325 114.775C11.0988 114.774 9.18568 113.982 7.74706 112.543C6.30872 111.103 5.51765 109.187 5.52013 107.149C5.52234 105.116 6.31479 103.208 7.75507 101.773L40.6895 68.8329C41.7673 67.7549 41.7673 66.0073 40.6895 64.9291C39.6116 63.8514 37.8639 63.8512 36.786 64.9294L3.85518 97.8659C1.37321 100.34 0.00414969 103.634 9.39545e-06 107.143C-0.0041309 110.657 1.36024 113.96 3.84276 116.446C6.32528 118.929 9.62427 120.296 13.1325 120.296C13.135 120.296 13.1375 120.296 13.1397 120.296C16.6482 120.294 19.9466 118.925 22.4269 116.443L60.7161 78.15C61.794 77.0721 61.794 75.3242 60.7161 74.246C59.638 73.1683 57.8905 73.1683 56.8126 74.246Z" fill="#CC3333"/>
<path d="M13.0933 103.797C12.1841 103.798 11.3301 104.153 10.6996 104.787C9.37282 106.105 9.36619 108.26 10.6847 109.589C10.6881 109.593 10.6914 109.596 10.6947 109.6C11.3557 110.259 12.2236 110.589 13.0927 110.589C13.9639 110.589 14.8364 110.257 15.5024 109.593C16.8234 108.265 16.8196 106.11 15.4994 104.794C14.8576 104.151 14.0042 103.797 13.0955 103.797C13.0949 103.797 13.0941 103.797 13.0933 103.797Z" fill="#CC3333"/>
<path d="M103.337 89.8036C103.051 89.5179 102.706 89.2985 102.326 89.1604L94.4104 86.2902L65.8181 57.6952L70.4395 53.0737C71.5173 51.9958 71.5176 50.2479 70.4395 49.1697C69.6213 48.3521 68.4176 48.1544 67.4135 48.5779L24.1661 5.33233C21.5505 2.70802 18.0672 1.26046 14.3577 1.25605C14.3522 1.25605 14.3472 1.25605 14.3417 1.25605C10.6323 1.25605 7.14561 2.69863 4.52204 5.31936C1.89516 7.94643 0.449646 11.4378 0.451854 15.1505C0.453786 18.8602 1.90041 22.3483 4.52453 24.9712L47.7724 68.2203C47.349 69.2243 47.5461 70.4281 48.3642 71.2463C49.4424 72.3239 51.1901 72.3245 52.2677 71.2463L56.888 66.6256L85.4806 95.2201L88.351 103.136C88.4887 103.516 88.7081 103.862 88.9941 104.147L105.037 120.191C105.577 120.73 106.283 121 106.989 121C107.696 121 108.402 120.73 108.941 120.191L119.38 109.752C119.897 109.234 120.188 108.532 120.188 107.8C120.188 107.068 119.897 106.366 119.38 105.848L103.337 89.8036ZM59.9623 55.7433C59.9565 55.7491 59.9504 55.7555 59.9446 55.7613L51.5329 64.1736L8.42745 21.0669C6.8453 19.4855 5.97336 17.3834 5.97225 15.1478C5.97115 12.9107 6.84227 10.8068 8.42441 9.22449C10.0046 7.64582 12.1057 6.77712 14.3417 6.77712C14.345 6.77712 14.3484 6.77712 14.3514 6.77712C16.5852 6.77961 18.6819 7.65079 20.259 9.23305L63.3665 52.3392L59.9802 55.7256C59.9744 55.7314 59.9684 55.7372 59.9623 55.7433ZM106.989 114.336L93.3317 100.677L90.4614 92.7611C90.3237 92.3813 90.1042 92.036 89.8183 91.7503L60.7917 62.7219L61.9146 61.5992L90.9408 90.6279C91.2268 90.9136 91.5718 91.133 91.9516 91.271L99.8671 94.1413L113.525 107.8L106.989 114.336Z" fill="#CC3333"/>
<path d="M16.2799 13.1793C15.2021 12.1017 13.4543 12.1017 12.3765 13.1793C11.2986 14.2573 11.2986 16.0051 12.3765 17.0834L50.4537 55.1631C50.9925 55.7019 51.6991 55.9716 52.4054 55.9716C53.1118 55.9716 53.8184 55.7019 54.3572 55.1631C55.435 54.0851 55.435 52.3373 54.3572 51.259L16.2799 13.1793Z" fill="#CC3333"/>
<path d="M64.1214 37.5912C63.0438 38.6694 63.0438 40.417 64.1219 41.4952C65.2001 42.5734 66.9478 42.5732 68.0254 41.4947L70.3045 39.2146C71.1243 38.3945 71.3443 37.1495 70.8549 36.0981C69.334 32.8298 68.5628 29.4486 68.5628 26.048C68.5628 19.1252 71.5761 12.6049 76.6588 8.09991L76.6676 26.1698C76.6679 27.0749 77.1123 27.9226 77.8564 28.438L90.9524 37.507C91.8973 38.1612 93.149 38.1618 94.0941 37.5076L107.195 28.4432C107.94 27.9276 108.385 27.0793 108.385 26.1728L108.383 8.10405C113.465 12.6049 116.478 19.12 116.48 26.037C116.48 32.4384 113.988 38.4569 109.462 42.9836C104.94 47.5071 98.9297 49.9973 92.5354 49.9973C92.5293 49.9973 92.523 49.9973 92.5166 49.9973C90.3165 49.9956 85.9976 48.9304 84.519 48.5199C83.5603 48.2532 82.5319 48.524 81.8283 49.2274L73.4368 57.6198C72.3589 58.6978 72.3589 60.4457 73.4368 61.5239C73.9758 62.0627 74.6822 62.3324 75.3885 62.3324C76.0948 62.3324 76.8015 62.0627 77.3402 61.5239L84.6142 54.2491C86.6421 54.7507 90.128 55.5164 92.5122 55.5181C92.5205 55.5181 92.5274 55.5181 92.5354 55.5181C100.403 55.5178 107.801 52.4529 113.366 46.8868C118.934 41.3175 122 33.913 122 26.0364C121.998 15.4271 116.241 5.58905 106.978 0.361125C106.124 -0.121117 105.077 -0.113664 104.23 0.381276C103.382 0.876216 102.861 1.78384 102.861 2.76543L102.864 24.7264L92.5238 31.8802L82.1877 24.7217L82.1769 2.75908C82.1764 1.77776 81.655 0.870419 80.8076 0.376031C79.9602 -0.118633 78.9138 -0.125534 78.0593 0.356984C68.7969 5.5896 63.043 15.4337 63.043 26.0478C63.043 29.633 63.7275 33.1845 65.0808 36.632L64.1214 37.5912Z" stroke="#CC3333" stroke-width="3.61991" mask="url(#path-1-inside-1_133_738)"/>
<path d="M56.8126 74.246L18.5226 112.54C17.0837 113.98 15.1709 114.773 13.1366 114.775C13.1352 114.775 13.1341 114.775 13.1325 114.775C11.0988 114.774 9.18568 113.982 7.74706 112.543C6.30872 111.103 5.51765 109.187 5.52013 107.149C5.52234 105.116 6.31479 103.208 7.75507 101.773L40.6895 68.8329C41.7673 67.7549 41.7673 66.0073 40.6895 64.9291C39.6116 63.8514 37.8639 63.8512 36.786 64.9294L3.85518 97.8659C1.37321 100.34 0.00414969 103.634 9.39545e-06 107.143C-0.0041309 110.657 1.36024 113.96 3.84276 116.446C6.32528 118.929 9.62427 120.296 13.1325 120.296C13.135 120.296 13.1375 120.296 13.1397 120.296C16.6482 120.294 19.9466 118.925 22.4269 116.443L60.7161 78.15C61.794 77.0721 61.794 75.3242 60.7161 74.246C59.638 73.1683 57.8905 73.1683 56.8126 74.246Z" stroke="#CC3333" stroke-width="3.61991" mask="url(#path-1-inside-1_133_738)"/>
<path d="M13.0933 103.797C12.1841 103.798 11.3301 104.153 10.6996 104.787C9.37282 106.105 9.36619 108.26 10.6847 109.589C10.6881 109.593 10.6914 109.596 10.6947 109.6C11.3557 110.259 12.2236 110.589 13.0927 110.589C13.9639 110.589 14.8364 110.257 15.5024 109.593C16.8234 108.265 16.8196 106.11 15.4994 104.794C14.8576 104.151 14.0042 103.797 13.0955 103.797C13.0949 103.797 13.0941 103.797 13.0933 103.797Z" stroke="#CC3333" stroke-width="3.61991" mask="url(#path-1-inside-1_133_738)"/>
<path d="M103.337 89.8036C103.051 89.5179 102.706 89.2985 102.326 89.1604L94.4104 86.2902L65.8181 57.6952L70.4395 53.0737C71.5173 51.9958 71.5176 50.2479 70.4395 49.1697C69.6213 48.3521 68.4176 48.1544 67.4135 48.5779L24.1661 5.33233C21.5505 2.70802 18.0672 1.26046 14.3577 1.25605C14.3522 1.25605 14.3472 1.25605 14.3417 1.25605C10.6323 1.25605 7.14561 2.69863 4.52204 5.31936C1.89516 7.94643 0.449646 11.4378 0.451854 15.1505C0.453786 18.8602 1.90041 22.3483 4.52453 24.9712L47.7724 68.2203C47.349 69.2243 47.5461 70.4281 48.3642 71.2463C49.4424 72.3239 51.1901 72.3245 52.2677 71.2463L56.888 66.6256L85.4806 95.2201L88.351 103.136C88.4887 103.516 88.7081 103.862 88.9941 104.147L105.037 120.191C105.577 120.73 106.283 121 106.989 121C107.696 121 108.402 120.73 108.941 120.191L119.38 109.752C119.897 109.234 120.188 108.532 120.188 107.8C120.188 107.068 119.897 106.366 119.38 105.848L103.337 89.8036ZM59.9623 55.7433C59.9565 55.7491 59.9504 55.7555 59.9446 55.7613L51.5329 64.1736L8.42745 21.0669C6.8453 19.4855 5.97336 17.3834 5.97225 15.1478C5.97115 12.9107 6.84227 10.8068 8.42441 9.22449C10.0046 7.64582 12.1057 6.77712 14.3417 6.77712C14.345 6.77712 14.3484 6.77712 14.3514 6.77712C16.5852 6.77961 18.6819 7.65079 20.259 9.23305L63.3665 52.3392L59.9802 55.7256C59.9744 55.7314 59.9684 55.7372 59.9623 55.7433ZM106.989 114.336L93.3317 100.677L90.4614 92.7611C90.3237 92.3813 90.1042 92.036 89.8183 91.7503L60.7917 62.7219L61.9146 61.5992L90.9408 90.6279C91.2268 90.9136 91.5718 91.133 91.9516 91.271L99.8671 94.1413L113.525 107.8L106.989 114.336Z" stroke="#CC3333" stroke-width="3.61991" mask="url(#path-1-inside-1_133_738)"/>
<path d="M16.2799 13.1793C15.2021 12.1017 13.4543 12.1017 12.3765 13.1793C11.2986 14.2573 11.2986 16.0051 12.3765 17.0834L50.4537 55.1631C50.9925 55.7019 51.6991 55.9716 52.4054 55.9716C53.1118 55.9716 53.8184 55.7019 54.3572 55.1631C55.435 54.0851 55.435 52.3373 54.3572 51.259L16.2799 13.1793Z" stroke="#CC3333" stroke-width="3.61991" mask="url(#path-1-inside-1_133_738)"/>
</svg>
