<svg width="95" height="132" viewBox="0 0 95 132" fill="none" xmlns="http://www.w3.org/2000/svg">
<path d="M75.3649 85.9515L91.7218 114.077C92.1424 114.792 91.7218 115.552 91.1843 115.344L71.0654 107.282C70.9886 107.258 70.9074 107.25 70.8273 107.26C70.7472 107.269 70.6702 107.296 70.6015 107.337C70.5327 107.379 70.4738 107.434 70.4289 107.5C70.3839 107.566 70.354 107.641 70.341 107.72L67.8641 128.451C67.7239 129.119 66.8827 129.027 66.4621 128.313L47.9083 96.8981L29.9161 128.405C29.4721 129.119 28.6777 129.212 28.5141 128.567L25.5465 107.374C25.5307 107.298 25.4986 107.226 25.4524 107.162C25.4063 107.099 25.347 107.046 25.2786 107.007C25.2102 106.968 25.1342 106.943 25.0555 106.935C24.9768 106.927 24.8973 106.935 24.8221 106.96L5.26394 115.275C4.60967 115.46 4.25916 114.722 4.70314 113.985L20.555 86.465M77.281 15.9015L79.2905 21.9136C79.8899 23.7993 81.1271 25.4254 82.7956 26.5207L88.0064 29.8377C89.7133 30.9681 90.9758 32.6407 91.5838 34.5771C92.1918 36.5135 92.1085 38.5968 91.3479 40.48L89.3851 45.2944C88.5096 47.4215 88.5096 49.8013 89.3851 51.9285L91.3245 56.5355C92.0954 58.3789 92.2101 60.4253 91.65 62.3412C91.0898 64.2571 89.8879 65.9294 88.2401 67.0856L83.6368 70.3566C81.9836 71.5284 80.7812 73.217 80.2252 75.148L78.6596 80.7685C78.0933 82.7369 76.8524 84.4508 75.1481 85.6184C73.4438 86.7861 71.3817 87.3352 69.3128 87.1723L64.4058 86.7577C62.0993 86.5736 59.8087 87.2658 58.0032 88.6926L53.3298 92.4474C51.731 93.7367 49.729 94.4411 47.6633 94.4411C45.5977 94.4411 43.5957 93.7367 41.9968 92.4474L37.8609 89.2455C36.2492 87.935 34.2252 87.2183 32.136 87.2184H24.9156C22.8786 87.2189 20.9023 86.5344 19.3134 85.2779C17.7244 84.0214 16.6178 82.2682 16.1763 80.3078L14.8911 74.8946C14.3876 72.7243 13.0683 70.8229 11.1992 69.5734L6.923 66.648C5.27626 65.5427 4.04947 63.9286 3.43601 62.0601C2.82255 60.1917 2.8573 58.1751 3.53479 56.3282L5.54435 50.8919C6.28078 48.914 6.28078 46.7425 5.54435 44.7645L3.74509 40.0193C3.03082 38.1271 2.99106 36.0516 3.63233 34.1342C4.2736 32.2168 5.55772 30.5716 7.2735 29.4692L11.9469 26.4516C13.7784 25.2737 15.1149 23.4815 15.709 21.4069L17.1344 16.3852C17.7002 14.4149 18.9402 12.6983 20.6439 11.5268C22.3476 10.3554 24.4101 9.80118 26.4812 9.95838L30.991 10.35C33.2975 10.5341 35.5881 9.84184 37.3935 8.41502L41.6697 5.00582C43.274 3.70882 45.2847 3 47.3596 3C49.4344 3 51.4451 3.70882 53.0494 5.00582L56.9283 8.18467C58.7188 9.6631 61.0258 10.3908 63.3543 10.2118L68.0277 9.86624C70.0331 9.7037 72.0358 10.2104 73.714 11.3049C75.3922 12.3995 76.6484 14.0183 77.281 15.9015ZM47.675 29.1006L53.9841 41.7469C54.0032 41.7798 54.0303 41.8075 54.0629 41.8276C54.0955 41.8477 54.1327 41.8596 54.171 41.8621L68.1912 43.8892C68.3782 43.8892 68.4716 44.1656 68.3314 44.2808L58.0967 54.1168C58.0782 54.1483 58.0685 54.1841 58.0685 54.2205C58.0685 54.2569 58.0782 54.2926 58.0967 54.3241L60.4334 68.1453C60.4416 68.1869 60.4381 68.2299 60.4231 68.2697C60.4081 68.3095 60.3823 68.3444 60.3484 68.3706C60.3146 68.3968 60.2741 68.4133 60.2313 68.4182C60.1886 68.4232 60.1453 68.4164 60.1063 68.3986L47.4413 61.8336C47.4119 61.8092 47.3747 61.7959 47.3362 61.7959C47.2977 61.7959 47.2605 61.8092 47.231 61.8336L34.7063 68.5138C34.666 68.5295 34.6222 68.5348 34.5792 68.5293C34.5362 68.5238 34.4952 68.5076 34.4602 68.4824C34.4253 68.4571 34.3973 68.4234 34.3791 68.3846C34.3608 68.3458 34.3528 68.3031 34.3558 68.2604L36.6925 54.4393C36.709 54.4072 36.7175 54.3717 36.7175 54.3357C36.7175 54.2997 36.709 54.2642 36.6925 54.232L26.4344 44.396C26.4104 44.3628 26.3948 44.3245 26.389 44.2841C26.3832 44.2438 26.3873 44.2026 26.4011 44.1642C26.4148 44.1258 26.4378 44.0912 26.468 44.0633C26.4982 44.0355 26.5348 44.0153 26.5746 44.0044L40.7117 41.9773C40.7506 41.977 40.7887 41.9661 40.8217 41.9458C40.8547 41.9254 40.8813 41.8965 40.8986 41.8621L47.231 29.2158C47.2273 29.1623 47.2426 29.1092 47.2743 29.0656C47.306 29.0221 47.3521 28.9908 47.4047 28.9771C47.4573 28.9635 47.5131 28.9683 47.5624 28.9909C47.6118 29.0134 47.6516 29.0522 47.675 29.1006Z" stroke="#CC3333" stroke-width="6" stroke-linecap="round"/>
</svg>
