<svg width="9" height="16" viewBox="0 0 9 16" fill="none" xmlns="http://www.w3.org/2000/svg">
<path d="M6.46315 7.99998L0.435901 1.97273C0.284193 1.82102 0.206998 1.63433 0.204317 1.41265C0.201651 1.19095 0.276172 1.00426 0.42788 0.852563C0.579588 0.700855 0.766283 0.625 0.987963 0.625C1.20964 0.625 1.39634 0.700855 1.54805 0.852563L7.76119 7.05769C7.89794 7.19444 7.9957 7.3424 8.05446 7.50158C8.11321 7.66078 8.14259 7.82691 8.14259 7.99998C8.14259 8.17305 8.11321 8.33918 8.05446 8.49838C7.9957 8.65756 7.89794 8.80552 7.76119 8.94227L1.55607 15.1474C1.40436 15.2991 1.21632 15.3763 0.991963 15.379C0.767616 15.3816 0.579588 15.3071 0.42788 15.1554C0.276172 15.0037 0.200317 14.817 0.200317 14.5953C0.200317 14.3737 0.276172 14.187 0.42788 14.0353L6.46315 7.99998Z" fill="#787878"/>
</svg>
