<svg width="26" height="18" viewBox="0 0 26 18" fill="none" xmlns="http://www.w3.org/2000/svg">
<path d="M8.9168 17.7948C8.71594 17.7948 8.52898 17.7627 8.35593 17.6986C8.18284 17.6345 8.01832 17.5245 7.86234 17.3685L0.90401 10.4102C0.662566 10.1687 0.546108 9.87174 0.554636 9.51918C0.563191 9.16662 0.688191 8.86962 0.929636 8.62818C1.17108 8.38671 1.46382 8.26597 1.80784 8.26597C2.15184 8.26597 2.44457 8.38671 2.68601 8.62818L8.9168 14.8589L23.3143 0.461512C23.5557 0.22004 23.8527 0.0993042 24.2053 0.0993042C24.5578 0.0993042 24.8548 0.22004 25.0963 0.461512C25.3377 0.702957 25.4584 0.999956 25.4584 1.35251C25.4584 1.70507 25.3377 2.00207 25.0963 2.24351L9.97126 17.3685C9.81529 17.5245 9.65076 17.6345 9.47768 17.6986C9.30462 17.7627 9.11766 17.7948 8.9168 17.7948Z" fill="white"/>
</svg>
