<svg width="84" height="83" viewBox="0 0 84 83" fill="none" xmlns="http://www.w3.org/2000/svg">
<path d="M83.0607 72.0607C83.6464 71.4749 83.6464 70.5251 83.0607 69.9393L73.5147 60.3934C72.9289 59.8076 71.9792 59.8076 71.3934 60.3934C70.8076 60.9792 70.8076 61.9289 71.3934 62.5147L79.8787 71L71.3934 79.4853C70.8076 80.0711 70.8076 81.0208 71.3934 81.6066C71.9792 82.1924 72.9289 82.1924 73.5147 81.6066L83.0607 72.0607ZM12 72.5H82V69.5H12V72.5Z" fill="black"/>
<path d="M20 2L82 1.99999" stroke="black" stroke-width="3" stroke-linecap="round"/>
<path d="M82 62L82 2" stroke="black" stroke-width="3" stroke-linecap="round"/>
<path d="M27.556 50V31.64H32.02L32.164 33.944H32.416C32.728 33.368 33.124 32.888 33.604 32.504C34.108 32.096 34.696 31.808 35.368 31.64C36.064 31.448 36.844 31.352 37.708 31.352C39.172 31.352 40.276 31.568 41.02 32C41.788 32.408 42.328 33.056 42.64 33.944H42.928C43.24 33.368 43.648 32.888 44.152 32.504C44.68 32.096 45.292 31.808 45.988 31.64C46.684 31.448 47.476 31.352 48.364 31.352C49.924 31.352 51.088 31.628 51.856 32.18C52.624 32.708 53.14 33.512 53.404 34.592C53.668 35.648 53.8 36.956 53.8 38.516V50H49.048V40.28C49.048 39.176 49.012 38.3 48.94 37.652C48.868 37.004 48.736 36.524 48.544 36.212C48.376 35.9 48.1 35.708 47.716 35.636C47.332 35.54 46.816 35.492 46.168 35.492C45.472 35.492 44.908 35.588 44.476 35.78C44.068 35.948 43.756 36.224 43.54 36.608C43.348 36.992 43.216 37.508 43.144 38.156C43.096 38.78 43.072 39.56 43.072 40.496V50H38.284V40.28C38.284 39.176 38.248 38.3 38.176 37.652C38.128 37.004 38.008 36.524 37.816 36.212C37.624 35.9 37.336 35.708 36.952 35.636C36.568 35.54 36.064 35.492 35.44 35.492C34.744 35.492 34.18 35.588 33.748 35.78C33.34 35.948 33.028 36.224 32.812 36.608C32.62 36.992 32.488 37.508 32.416 38.156C32.344 38.804 32.308 39.584 32.308 40.496V50H27.556Z" fill="black"/>
<path d="M57.18 36V34.2C57.18 33.4267 57.2 32.7733 57.24 32.24C57.28 31.6933 57.3733 31.2333 57.52 30.86C57.68 30.4867 57.9133 30.1667 58.22 29.9C58.54 29.6333 58.98 29.3867 59.54 29.16L62.7 27.88C63.1267 27.6933 63.4467 27.5333 63.66 27.4C63.8733 27.2533 64.0133 27.0733 64.08 26.86C64.1467 26.6467 64.18 26.36 64.18 26C64.18 25.52 64.0933 25.1667 63.92 24.94C63.76 24.7 63.4733 24.5533 63.06 24.5C62.66 24.4333 62.0867 24.4 61.34 24.4C61.0467 24.4 60.68 24.4133 60.24 24.44C59.8 24.4667 59.34 24.5 58.86 24.54C58.38 24.58 57.9133 24.6267 57.46 24.68V22.5C57.8733 22.42 58.3533 22.3533 58.9 22.3C59.4467 22.2333 60.0067 22.18 60.58 22.14C61.1667 22.1 61.7067 22.08 62.2 22.08C62.8667 22.08 63.4867 22.12 64.06 22.2C64.6467 22.28 65.16 22.4467 65.6 22.7C66.04 22.9533 66.3867 23.3267 66.64 23.82C66.8933 24.3133 67.02 24.98 67.02 25.82C67.02 26.6467 66.9267 27.3133 66.74 27.82C66.5667 28.3267 66.3 28.7333 65.94 29.04C65.58 29.3467 65.1333 29.6067 64.6 29.82L61 31.26C60.68 31.38 60.44 31.5133 60.28 31.66C60.1333 31.7933 60.0333 31.9733 59.98 32.2C59.94 32.4133 59.92 32.7067 59.92 33.08V33.66H67.02V36H57.18Z" fill="black"/>
<path d="M13.0607 0.93934C12.4749 0.353553 11.5251 0.353553 10.9393 0.93934L1.3934 10.4853C0.807612 11.0711 0.807612 12.0208 1.3934 12.6066C1.97918 13.1924 2.92893 13.1924 3.51472 12.6066L12 4.12132L20.4853 12.6066C21.0711 13.1924 22.0208 13.1924 22.6066 12.6066C23.1924 12.0208 23.1924 11.0711 22.6066 10.4853L13.0607 0.93934ZM13.5 72L13.5 2H10.5L10.5 72H13.5Z" fill="black"/>
</svg>
