<svg xmlns="http://www.w3.org/2000/svg">

  <!--burger-->
  <symbol id="burger" viewBox="0 0 18 12">
    <path d="M1 12C0.716667 12 0.479167 11.9042 0.2875 11.7125C0.0958333 11.5208 0 11.2833 0 11C0 10.7167 0.0958333 10.4792 0.2875 10.2875C0.479167 10.0958 0.716667 10 1 10H17C17.2833 10 17.5208 10.0958 17.7125 10.2875C17.9042 10.4792 18 10.7167 18 11C18 11.2833 17.9042 11.5208 17.7125 11.7125C17.5208 11.9042 17.2833 12 17 12H1ZM1 7C0.716667 7 0.479167 6.90417 0.2875 6.7125C0.0958333 6.52083 0 6.28333 0 6C0 5.71667 0.0958333 5.47917 0.2875 5.2875C0.479167 5.09583 0.716667 5 1 5H17C17.2833 5 17.5208 5.09583 17.7125 5.2875C17.9042 5.47917 18 5.71667 18 6C18 6.28333 17.9042 6.52083 17.7125 6.7125C17.5208 6.90417 17.2833 7 17 7H1ZM1 2C0.716667 2 0.479167 1.90417 0.2875 1.7125C0.0958333 1.52083 0 1.28333 0 1C0 0.716667 0.0958333 0.479167 0.2875 0.2875C0.479167 0.0958333 0.716667 0 1 0H17C17.2833 0 17.5208 0.0958333 17.7125 0.2875C17.9042 0.479167 18 0.716667 18 1C18 1.28333 17.9042 1.52083 17.7125 1.7125C17.5208 1.90417 17.2833 2 17 2H1Z"/>
  </symbol>

  <!--close-->
  <symbol id="close" viewBox="0 0 14 14">
    <path d="M7.00005 8.39999L2.10005 13.3C1.91672 13.4833 1.68338 13.575 1.40005 13.575C1.11672 13.575 0.883382 13.4833 0.700049 13.3C0.516715 13.1167 0.425049 12.8833 0.425049 12.6C0.425049 12.3167 0.516715 12.0833 0.700049 11.9L5.60005 6.99999L0.700049 2.09999C0.516715 1.91665 0.425049 1.68332 0.425049 1.39999C0.425049 1.11665 0.516715 0.883321 0.700049 0.699988C0.883382 0.516654 1.11672 0.424988 1.40005 0.424988C1.68338 0.424988 1.91672 0.516654 2.10005 0.699988L7.00005 5.59999L11.9 0.699988C12.0834 0.516654 12.3167 0.424988 12.6 0.424988C12.8834 0.424988 13.1167 0.516654 13.3 0.699988C13.4834 0.883321 13.575 1.11665 13.575 1.39999C13.575 1.68332 13.4834 1.91665 13.3 2.09999L8.40005 6.99999L13.3 11.9C13.4834 12.0833 13.575 12.3167 13.575 12.6C13.575 12.8833 13.4834 13.1167 13.3 13.3C13.1167 13.4833 12.8834 13.575 12.6 13.575C12.3167 13.575 12.0834 13.4833 11.9 13.3L7.00005 8.39999Z"/>
  </symbol>

  <!--location-->
  <symbol id="location"  viewBox="0 0 24 24">
    <g id="SVGRepo_bgCarrier" stroke-width="0"></g>
    <g id="SVGRepo_tracerCarrier" stroke-linecap="round" stroke-linejoin="round"></g>
    <g id="SVGRepo_iconCarrier">
      <path fill-rule="evenodd" clip-rule="evenodd" d="M12.2848 18.9935C12.1567 19.0875 12.0373 19.1728 11.9282 19.2493C11.8118 19.1721 11.6827 19.0833 11.5427 18.9832C10.8826 18.5109 10.0265 17.8176 9.18338 16.9529C7.45402 15.1792 6 12.9151 6 10.5C6 7.18629 8.68629 4.5 12 4.5C15.3137 4.5 18 7.18629 18 10.5C18 12.8892 16.4819 15.1468 14.6893 16.9393C13.8196 17.8091 12.9444 18.5099 12.2848 18.9935ZM19.5 10.5C19.5 16.5 12 21 12 21C11.625 21 4.5 16.5 4.5 10.5C4.5 6.35786 7.85786 3 12 3C16.1421 3 19.5 6.35786 19.5 10.5ZM13.5 10.5C13.5 11.3284 12.8284 12 12 12C11.1716 12 10.5 11.3284 10.5 10.5C10.5 9.67157 11.1716 9 12 9C12.8284 9 13.5 9.67157 13.5 10.5ZM15 10.5C15 12.1569 13.6569 13.5 12 13.5C10.3431 13.5 9 12.1569 9 10.5C9 8.84315 10.3431 7.5 12 7.5C13.6569 7.5 15 8.84315 15 10.5Z"></path>
    </g>
  </symbol>

  <!--phone-->
  <symbol id="phone" viewBox="0 0 22 22">
    <path d="M6.16215 1H3.10526C1.94256 1 1 1.94256 1 3.10526C1 12.9883 9.01175 21 18.8947 21C20.0574 21 21 20.0574 21 18.8947V15.8379C21 14.9292 20.4468 14.112 19.6031 13.7746L16.6746 12.6032C15.9167 12.3 15.0537 12.4367 14.4266 12.9593L13.6701 13.5897C12.7872 14.3255 11.4888 14.2666 10.6761 13.4539L8.54609 11.3239C7.73338 10.5112 7.67449 9.21284 8.41028 8.32989L9.04071 7.57337C9.56325 6.94632 9.69998 6.08328 9.39684 5.32542L8.22543 2.39691C7.88796 1.55322 7.07083 1 6.16215 1Z" stroke-width="2" stroke-linecap="round" stroke-linejoin="round"/>
  </symbol>

  <!--email-->
  <symbol id="email" viewBox="0 0 24 24">
    <g id="SVGRepo_bgCarrier" stroke-width="0"></g>
    <g id="SVGRepo_tracerCarrier" stroke-linecap="round" stroke-linejoin="round"></g>
    <g id="SVGRepo_iconCarrier">
      <path d="M3 8L8.44992 11.6333C9.73295 12.4886 10.3745 12.9163 11.0678 13.0825C11.6806 13.2293 12.3194 13.2293 12.9322 13.0825C13.6255 12.9163 14.2671 12.4886 15.5501 11.6333L21 8M6.2 19H17.8C18.9201 19 19.4802 19 19.908 18.782C20.2843 18.5903 20.5903 18.2843 20.782 17.908C21 17.4802 21 16.9201 21 15.8V8.2C21 7.0799 21 6.51984 20.782 6.09202C20.5903 5.71569 20.2843 5.40973 19.908 5.21799C19.4802 5 18.9201 5 17.8 5H6.2C5.0799 5 4.51984 5 4.09202 5.21799C3.71569 5.40973 3.40973 5.71569 3.21799 6.09202C3 6.51984 3 7.07989 3 8.2V15.8C3 16.9201 3 17.4802 3.21799 17.908C3.40973 18.2843 3.71569 18.5903 4.09202 18.782C4.51984 19 5.07989 19 6.2 19Z" stroke-width="2" stroke-linecap="round" stroke-linejoin="round"></path>
    </g>
  </symbol>

  <symbol id="arrow-filter" viewBox="0 0 19 11">
    <path d="M18.7481 1.62881L10.6154 9.74226C10.5116 9.84611 10.41 9.91983 10.3106 9.96343C10.2113 10.007 10.1077 10.0288 10 10.0288C9.89235 10.0288 9.78882 10.007 9.68947 9.96343C9.59011 9.91983 9.48851 9.84611 9.38467 9.74226L1.22697 1.58458C1.06671 1.42432 0.986572 1.24194 0.986572 1.03746C0.986572 0.832974 1.07504 0.650599 1.25197 0.490333C1.39941 0.326233 1.59236 0.252516 1.83082 0.269182C2.06929 0.28585 2.26224 0.3679 2.40967 0.515333L10 8.10573L17.6347 0.471108C17.7783 0.327524 17.9638 0.255733 18.1914 0.255733C18.419 0.255733 18.6045 0.327524 18.7481 0.471108C18.8956 0.618541 18.9693 0.81149 18.9693 1.04996C18.9693 1.28842 18.8956 1.48137 18.7481 1.62881Z" />
  </symbol>





</svg>
