<svg xmlns="http://www.w3.org/2000/svg">

  <!--burger-->
  <symbol id="burger" viewBox="0 0 18 12">
    <path d="M1 12C0.716667 12 0.479167 11.9042 0.2875 11.7125C0.0958333 11.5208 0 11.2833 0 11C0 10.7167 0.0958333 10.4792 0.2875 10.2875C0.479167 10.0958 0.716667 10 1 10H17C17.2833 10 17.5208 10.0958 17.7125 10.2875C17.9042 10.4792 18 10.7167 18 11C18 11.2833 17.9042 11.5208 17.7125 11.7125C17.5208 11.9042 17.2833 12 17 12H1ZM1 7C0.716667 7 0.479167 6.90417 0.2875 6.7125C0.0958333 6.52083 0 6.28333 0 6C0 5.71667 0.0958333 5.47917 0.2875 5.2875C0.479167 5.09583 0.716667 5 1 5H17C17.2833 5 17.5208 5.09583 17.7125 5.2875C17.9042 5.47917 18 5.71667 18 6C18 6.28333 17.9042 6.52083 17.7125 6.7125C17.5208 6.90417 17.2833 7 17 7H1ZM1 2C0.716667 2 0.479167 1.90417 0.2875 1.7125C0.0958333 1.52083 0 1.28333 0 1C0 0.716667 0.0958333 0.479167 0.2875 0.2875C0.479167 0.0958333 0.716667 0 1 0H17C17.2833 0 17.5208 0.0958333 17.7125 0.2875C17.9042 0.479167 18 0.716667 18 1C18 1.28333 17.9042 1.52083 17.7125 1.7125C17.5208 1.90417 17.2833 2 17 2H1Z"/>
  </symbol>

  <!--close-->
  <symbol id="close" viewBox="0 0 14 14">
    <path d="M7.00005 8.39999L2.10005 13.3C1.91672 13.4833 1.68338 13.575 1.40005 13.575C1.11672 13.575 0.883382 13.4833 0.700049 13.3C0.516715 13.1167 0.425049 12.8833 0.425049 12.6C0.425049 12.3167 0.516715 12.0833 0.700049 11.9L5.60005 6.99999L0.700049 2.09999C0.516715 1.91665 0.425049 1.68332 0.425049 1.39999C0.425049 1.11665 0.516715 0.883321 0.700049 0.699988C0.883382 0.516654 1.11672 0.424988 1.40005 0.424988C1.68338 0.424988 1.91672 0.516654 2.10005 0.699988L7.00005 5.59999L11.9 0.699988C12.0834 0.516654 12.3167 0.424988 12.6 0.424988C12.8834 0.424988 13.1167 0.516654 13.3 0.699988C13.4834 0.883321 13.575 1.11665 13.575 1.39999C13.575 1.68332 13.4834 1.91665 13.3 2.09999L8.40005 6.99999L13.3 11.9C13.4834 12.0833 13.575 12.3167 13.575 12.6C13.575 12.8833 13.4834 13.1167 13.3 13.3C13.1167 13.4833 12.8834 13.575 12.6 13.575C12.3167 13.575 12.0834 13.4833 11.9 13.3L7.00005 8.39999Z"/>
  </symbol>


</svg>
