<svg width="152" height="121" viewBox="0 0 152 121" fill="none" xmlns="http://www.w3.org/2000/svg">
<mask id="path-1-inside-1_133_739" fill="white">
<path d="M36.3426 92.6135C34.6791 92.6162 33.0537 93.1122 31.672 94.0388C30.2903 94.9655 29.2143 96.2812 28.5801 97.8195C27.9459 99.3578 27.782 101.05 28.1091 102.681C28.4362 104.313 29.2397 105.811 30.4178 106.985C31.596 108.16 33.0959 108.959 34.728 109.281C36.3601 109.603 38.051 109.434 39.5869 108.795C41.1228 108.156 42.4347 107.075 43.3567 105.69C44.2787 104.305 44.7695 102.678 44.7668 101.014C44.7598 98.7834 43.8692 96.6468 42.2901 95.0723C40.711 93.4977 38.5723 92.6135 36.3426 92.6135ZM36.3426 104.141C35.7281 104.138 35.1282 103.953 34.6183 103.61C34.1085 103.267 33.7115 102.781 33.4776 102.212C33.2436 101.644 33.1831 101.019 33.3036 100.416C33.4242 99.8135 33.7204 99.2599 34.1549 98.8253C34.5894 98.3906 35.1428 98.0944 35.7454 97.9738C36.348 97.8533 36.9727 97.9138 37.541 98.1478C38.1092 98.3818 38.5955 98.7789 38.9385 99.2889C39.2815 99.7989 39.466 100.399 39.4686 101.014C39.47 101.425 39.3901 101.832 39.2335 102.212C39.0769 102.592 38.8467 102.937 38.5561 103.228C38.2656 103.518 37.9204 103.749 37.5405 103.905C37.1606 104.062 36.7535 104.142 36.3426 104.141Z"/>
<path d="M120.055 92.6135C118.391 92.6162 116.766 93.1122 115.384 94.0388C114.003 94.9655 112.927 96.2812 112.292 97.8195C111.658 99.3578 111.494 101.05 111.821 102.681C112.149 104.313 112.952 105.811 114.13 106.985C115.308 108.16 116.808 108.959 118.44 109.281C120.072 109.603 121.763 109.434 123.299 108.795C124.835 108.156 126.147 107.075 127.069 105.69C127.991 104.305 128.482 102.678 128.479 101.014C128.472 98.7834 127.581 96.6468 126.002 95.0723C124.423 93.4977 122.285 92.6135 120.055 92.6135ZM120.055 104.141C119.44 104.138 118.84 103.953 118.331 103.61C117.821 103.267 117.424 102.781 117.19 102.212C116.956 101.644 116.895 101.019 117.016 100.416C117.136 99.8135 117.433 99.2599 117.867 98.8253C118.302 98.3906 118.855 98.0944 119.458 97.9738C120.06 97.8533 120.685 97.9138 121.253 98.1478C121.821 98.3818 122.308 98.7789 122.651 99.2889C122.994 99.7989 123.178 100.399 123.181 101.014C123.182 101.425 123.102 101.832 122.946 102.212C122.789 102.592 122.559 102.937 122.268 103.228C121.978 103.518 121.633 103.749 121.253 103.905C120.873 104.062 120.466 104.142 120.055 104.141Z"/>
<path d="M127.711 41.2322L116.823 29.7052C116.575 29.4397 116.276 29.2275 115.943 29.0817C115.611 28.9359 115.252 28.8595 114.889 28.8573H102.703C102.001 28.8573 101.327 29.1365 100.83 29.6334C100.333 30.1304 100.054 30.8044 100.054 31.5072V48.8374C100.054 49.5402 100.333 50.2142 100.83 50.7112C101.327 51.2081 102.001 51.4873 102.703 51.4873H125.777C126.48 51.4873 127.153 51.2081 127.65 50.7112C128.147 50.2142 128.426 49.5402 128.426 48.8374V43.0607C128.423 42.3835 128.168 41.7319 127.711 41.2322ZM123.128 46.1875H105.352V34.157H113.75L123.128 44.0941V46.1875Z"/>
<path d="M150.228 52.0968L122.889 19.3177C122.371 18.6952 121.723 18.1927 120.991 17.845C120.26 17.4973 119.461 17.3126 118.651 17.3038H94.0405C92.5743 17.3107 91.17 17.8965 90.1332 18.9336C89.0964 19.9707 88.5108 21.3753 88.5039 22.842V57.7145H85.166V31.5072C85.166 30.8044 84.8869 30.1304 84.3901 29.6334C83.8932 29.1365 83.2194 28.8573 82.5168 28.8573H64.9532V2.64989C64.9532 1.94709 64.6741 1.27308 64.1772 0.776134C63.6804 0.279184 63.0066 0 62.304 0H33.4551C32.7525 0 32.0787 0.279184 31.5819 0.776134C31.0851 1.27308 30.806 1.94709 30.806 2.64989V28.8573H13.2688C12.5662 28.8573 11.8924 29.1365 11.3956 29.6334C10.8988 30.1304 10.6196 30.8044 10.6196 31.5072V57.7145H3.14912C2.44653 57.7145 1.77272 57.9937 1.27591 58.4907C0.779103 58.9876 0.5 59.6616 0.5 60.3644V89.2217C0.5 89.9245 0.779103 90.5985 1.27591 91.0954C1.77272 91.5924 2.44653 91.8716 3.14912 91.8716H18.62C17.2329 94.5584 16.474 97.5253 16.4006 100.548C16.3272 103.571 16.9413 106.572 18.1963 109.323C19.4514 112.074 21.3148 114.504 23.6458 116.429C25.9769 118.355 28.7147 119.725 31.6527 120.438C34.5906 121.15 37.652 121.186 40.6058 120.542C43.5596 119.898 46.3285 118.592 48.7038 116.721C51.0791 114.851 52.9985 112.465 54.3174 109.744C55.6362 107.023 56.32 104.038 56.317 101.014C56.3134 97.8294 55.5409 94.6931 54.0653 91.8716H102.332C100.944 94.5568 100.183 97.5226 100.108 100.545C100.033 103.567 100.645 106.567 101.899 109.318C103.152 112.069 105.014 114.499 107.344 116.425C109.674 118.351 112.411 119.722 115.348 120.434C118.286 121.147 121.346 121.183 124.299 120.54C127.253 119.896 130.021 118.59 132.395 116.719C134.77 114.849 136.689 112.463 138.006 109.742C139.324 107.022 140.007 104.037 140.003 101.014C140.008 97.8315 139.245 94.6951 137.778 91.8716H148.851C149.553 91.8716 150.227 91.5924 150.724 91.0954C151.221 90.5985 151.5 89.9245 151.5 89.2217V55.6476C151.498 54.3527 151.049 53.0982 150.228 52.0968ZM79.8677 34.157V57.7145H56.317V34.157H79.8677ZM36.1042 5.29977H59.6549V28.8573H36.1042V5.29977ZM51.0188 34.157V57.7145H44.7668V34.157H51.0188ZM15.9179 34.157H39.4686V57.7145H15.9179V34.157ZM36.3426 115.694C33.5055 115.699 30.7281 114.878 28.349 113.332C25.9698 111.786 24.0917 109.581 22.9433 106.986C21.7949 104.391 21.4259 101.517 21.8812 98.7161C22.3365 95.9149 23.5966 93.3066 25.5077 91.2091C25.6113 91.0999 25.7086 90.9849 25.7991 90.8646C27.4794 89.1184 29.5663 87.816 31.873 87.0742C34.1797 86.3323 36.6343 86.174 39.0172 86.6134C41.4 87.0529 43.6368 88.0763 45.5274 89.5923C47.418 91.1082 48.9033 93.0693 49.8506 95.3001C50.7979 97.531 51.1776 99.9619 50.9556 102.375C50.7336 104.789 49.917 107.11 48.5787 109.13C47.2404 111.151 45.4222 112.808 43.2869 113.953C41.1516 115.099 38.7657 115.697 36.3426 115.694ZM88.5039 86.5718H50.0916C46.3939 83.0327 41.4736 81.0574 36.3559 81.0574C31.2382 81.0574 26.3179 83.0327 22.6202 86.5718H5.79825V63.0143H88.5039V86.5718ZM120.055 115.694C117.155 115.697 114.319 114.839 111.906 113.23C109.494 111.62 107.612 109.331 106.5 106.652C105.388 103.973 105.095 101.024 105.658 98.1785C106.221 95.3328 107.615 92.7182 109.664 90.6651C111.713 88.612 114.324 87.2127 117.168 86.6442C120.012 86.0757 122.96 86.3635 125.641 87.4712C128.321 88.5789 130.613 90.4567 132.226 92.8673C133.839 95.2778 134.702 98.1128 134.705 101.014C134.707 104.903 133.165 108.634 130.418 111.387C127.671 114.14 123.943 115.689 120.055 115.694ZM146.202 75.0448H139.95V68.7911H146.202V75.0448ZM146.202 63.4913H139.95C138.546 63.4955 137.201 64.0552 136.208 65.0482C135.215 66.0412 134.656 67.3868 134.652 68.7911V75.0448C134.656 76.4491 135.215 77.7947 136.208 78.7877C137.201 79.7807 138.546 80.3404 139.95 80.3446H146.202V86.5718H133.777C130.084 83.0345 125.168 81.0599 120.055 81.0599C114.942 81.0599 110.026 83.0345 106.332 86.5718H93.8021V22.842C93.808 22.7808 93.835 22.7235 93.8785 22.6799C93.922 22.6364 93.9793 22.6094 94.0405 22.6035L118.81 22.7095L146.202 55.6476V63.4913Z"/>
</mask>
<path d="M36.3426 92.6135C34.6791 92.6162 33.0537 93.1122 31.672 94.0388C30.2903 94.9655 29.2143 96.2812 28.5801 97.8195C27.9459 99.3578 27.782 101.05 28.1091 102.681C28.4362 104.313 29.2397 105.811 30.4178 106.985C31.596 108.16 33.0959 108.959 34.728 109.281C36.3601 109.603 38.051 109.434 39.5869 108.795C41.1228 108.156 42.4347 107.075 43.3567 105.69C44.2787 104.305 44.7695 102.678 44.7668 101.014C44.7598 98.7834 43.8692 96.6468 42.2901 95.0723C40.711 93.4977 38.5723 92.6135 36.3426 92.6135ZM36.3426 104.141C35.7281 104.138 35.1282 103.953 34.6183 103.61C34.1085 103.267 33.7115 102.781 33.4776 102.212C33.2436 101.644 33.1831 101.019 33.3036 100.416C33.4242 99.8135 33.7204 99.2599 34.1549 98.8253C34.5894 98.3906 35.1428 98.0944 35.7454 97.9738C36.348 97.8533 36.9727 97.9138 37.541 98.1478C38.1092 98.3818 38.5955 98.7789 38.9385 99.2889C39.2815 99.7989 39.466 100.399 39.4686 101.014C39.47 101.425 39.3901 101.832 39.2335 102.212C39.0769 102.592 38.8467 102.937 38.5561 103.228C38.2656 103.518 37.9204 103.749 37.5405 103.905C37.1606 104.062 36.7535 104.142 36.3426 104.141Z" fill="black"/>
<path d="M120.055 92.6135C118.391 92.6162 116.766 93.1122 115.384 94.0388C114.003 94.9655 112.927 96.2812 112.292 97.8195C111.658 99.3578 111.494 101.05 111.821 102.681C112.149 104.313 112.952 105.811 114.13 106.985C115.308 108.16 116.808 108.959 118.44 109.281C120.072 109.603 121.763 109.434 123.299 108.795C124.835 108.156 126.147 107.075 127.069 105.69C127.991 104.305 128.482 102.678 128.479 101.014C128.472 98.7834 127.581 96.6468 126.002 95.0723C124.423 93.4977 122.285 92.6135 120.055 92.6135ZM120.055 104.141C119.44 104.138 118.84 103.953 118.331 103.61C117.821 103.267 117.424 102.781 117.19 102.212C116.956 101.644 116.895 101.019 117.016 100.416C117.136 99.8135 117.433 99.2599 117.867 98.8253C118.302 98.3906 118.855 98.0944 119.458 97.9738C120.06 97.8533 120.685 97.9138 121.253 98.1478C121.821 98.3818 122.308 98.7789 122.651 99.2889C122.994 99.7989 123.178 100.399 123.181 101.014C123.182 101.425 123.102 101.832 122.946 102.212C122.789 102.592 122.559 102.937 122.268 103.228C121.978 103.518 121.633 103.749 121.253 103.905C120.873 104.062 120.466 104.142 120.055 104.141Z" fill="black"/>
<path d="M127.711 41.2322L116.823 29.7052C116.575 29.4397 116.276 29.2275 115.943 29.0817C115.611 28.9359 115.252 28.8595 114.889 28.8573H102.703C102.001 28.8573 101.327 29.1365 100.83 29.6334C100.333 30.1304 100.054 30.8044 100.054 31.5072V48.8374C100.054 49.5402 100.333 50.2142 100.83 50.7112C101.327 51.2081 102.001 51.4873 102.703 51.4873H125.777C126.48 51.4873 127.153 51.2081 127.65 50.7112C128.147 50.2142 128.426 49.5402 128.426 48.8374V43.0607C128.423 42.3835 128.168 41.7319 127.711 41.2322ZM123.128 46.1875H105.352V34.157H113.75L123.128 44.0941V46.1875Z" fill="black"/>
<path d="M150.228 52.0968L122.889 19.3177C122.371 18.6952 121.723 18.1927 120.991 17.845C120.26 17.4973 119.461 17.3126 118.651 17.3038H94.0405C92.5743 17.3107 91.17 17.8965 90.1332 18.9336C89.0964 19.9707 88.5108 21.3753 88.5039 22.842V57.7145H85.166V31.5072C85.166 30.8044 84.8869 30.1304 84.3901 29.6334C83.8932 29.1365 83.2194 28.8573 82.5168 28.8573H64.9532V2.64989C64.9532 1.94709 64.6741 1.27308 64.1772 0.776134C63.6804 0.279184 63.0066 0 62.304 0H33.4551C32.7525 0 32.0787 0.279184 31.5819 0.776134C31.0851 1.27308 30.806 1.94709 30.806 2.64989V28.8573H13.2688C12.5662 28.8573 11.8924 29.1365 11.3956 29.6334C10.8988 30.1304 10.6196 30.8044 10.6196 31.5072V57.7145H3.14912C2.44653 57.7145 1.77272 57.9937 1.27591 58.4907C0.779103 58.9876 0.5 59.6616 0.5 60.3644V89.2217C0.5 89.9245 0.779103 90.5985 1.27591 91.0954C1.77272 91.5924 2.44653 91.8716 3.14912 91.8716H18.62C17.2329 94.5584 16.474 97.5253 16.4006 100.548C16.3272 103.571 16.9413 106.572 18.1963 109.323C19.4514 112.074 21.3148 114.504 23.6458 116.429C25.9769 118.355 28.7147 119.725 31.6527 120.438C34.5906 121.15 37.652 121.186 40.6058 120.542C43.5596 119.898 46.3285 118.592 48.7038 116.721C51.0791 114.851 52.9985 112.465 54.3174 109.744C55.6362 107.023 56.32 104.038 56.317 101.014C56.3134 97.8294 55.5409 94.6931 54.0653 91.8716H102.332C100.944 94.5568 100.183 97.5226 100.108 100.545C100.033 103.567 100.645 106.567 101.899 109.318C103.152 112.069 105.014 114.499 107.344 116.425C109.674 118.351 112.411 119.722 115.348 120.434C118.286 121.147 121.346 121.183 124.299 120.54C127.253 119.896 130.021 118.59 132.395 116.719C134.77 114.849 136.689 112.463 138.006 109.742C139.324 107.022 140.007 104.037 140.003 101.014C140.008 97.8315 139.245 94.6951 137.778 91.8716H148.851C149.553 91.8716 150.227 91.5924 150.724 91.0954C151.221 90.5985 151.5 89.9245 151.5 89.2217V55.6476C151.498 54.3527 151.049 53.0982 150.228 52.0968ZM79.8677 34.157V57.7145H56.317V34.157H79.8677ZM36.1042 5.29977H59.6549V28.8573H36.1042V5.29977ZM51.0188 34.157V57.7145H44.7668V34.157H51.0188ZM15.9179 34.157H39.4686V57.7145H15.9179V34.157ZM36.3426 115.694C33.5055 115.699 30.7281 114.878 28.349 113.332C25.9698 111.786 24.0917 109.581 22.9433 106.986C21.7949 104.391 21.4259 101.517 21.8812 98.7161C22.3365 95.9149 23.5966 93.3066 25.5077 91.2091C25.6113 91.0999 25.7086 90.9849 25.7991 90.8646C27.4794 89.1184 29.5663 87.816 31.873 87.0742C34.1797 86.3323 36.6343 86.174 39.0172 86.6134C41.4 87.0529 43.6368 88.0763 45.5274 89.5923C47.418 91.1082 48.9033 93.0693 49.8506 95.3001C50.7979 97.531 51.1776 99.9619 50.9556 102.375C50.7336 104.789 49.917 107.11 48.5787 109.13C47.2404 111.151 45.4222 112.808 43.2869 113.953C41.1516 115.099 38.7657 115.697 36.3426 115.694ZM88.5039 86.5718H50.0916C46.3939 83.0327 41.4736 81.0574 36.3559 81.0574C31.2382 81.0574 26.3179 83.0327 22.6202 86.5718H5.79825V63.0143H88.5039V86.5718ZM120.055 115.694C117.155 115.697 114.319 114.839 111.906 113.23C109.494 111.62 107.612 109.331 106.5 106.652C105.388 103.973 105.095 101.024 105.658 98.1785C106.221 95.3328 107.615 92.7182 109.664 90.6651C111.713 88.612 114.324 87.2127 117.168 86.6442C120.012 86.0757 122.96 86.3635 125.641 87.4712C128.321 88.5789 130.613 90.4567 132.226 92.8673C133.839 95.2778 134.702 98.1128 134.705 101.014C134.707 104.903 133.165 108.634 130.418 111.387C127.671 114.14 123.943 115.689 120.055 115.694ZM146.202 75.0448H139.95V68.7911H146.202V75.0448ZM146.202 63.4913H139.95C138.546 63.4955 137.201 64.0552 136.208 65.0482C135.215 66.0412 134.656 67.3868 134.652 68.7911V75.0448C134.656 76.4491 135.215 77.7947 136.208 78.7877C137.201 79.7807 138.546 80.3404 139.95 80.3446H146.202V86.5718H133.777C130.084 83.0345 125.168 81.0599 120.055 81.0599C114.942 81.0599 110.026 83.0345 106.332 86.5718H93.8021V22.842C93.808 22.7808 93.835 22.7235 93.8785 22.6799C93.922 22.6364 93.9793 22.6094 94.0405 22.6035L118.81 22.7095L146.202 55.6476V63.4913Z" fill="black"/>
<path d="M36.3426 92.6135C34.6791 92.6162 33.0537 93.1122 31.672 94.0388C30.2903 94.9655 29.2143 96.2812 28.5801 97.8195C27.9459 99.3578 27.782 101.05 28.1091 102.681C28.4362 104.313 29.2397 105.811 30.4178 106.985C31.596 108.16 33.0959 108.959 34.728 109.281C36.3601 109.603 38.051 109.434 39.5869 108.795C41.1228 108.156 42.4347 107.075 43.3567 105.69C44.2787 104.305 44.7695 102.678 44.7668 101.014C44.7598 98.7834 43.8692 96.6468 42.2901 95.0723C40.711 93.4977 38.5723 92.6135 36.3426 92.6135ZM36.3426 104.141C35.7281 104.138 35.1282 103.953 34.6183 103.61C34.1085 103.267 33.7115 102.781 33.4776 102.212C33.2436 101.644 33.1831 101.019 33.3036 100.416C33.4242 99.8135 33.7204 99.2599 34.1549 98.8253C34.5894 98.3906 35.1428 98.0944 35.7454 97.9738C36.348 97.8533 36.9727 97.9138 37.541 98.1478C38.1092 98.3818 38.5955 98.7789 38.9385 99.2889C39.2815 99.7989 39.466 100.399 39.4686 101.014C39.47 101.425 39.3901 101.832 39.2335 102.212C39.0769 102.592 38.8467 102.937 38.5561 103.228C38.2656 103.518 37.9204 103.749 37.5405 103.905C37.1606 104.062 36.7535 104.142 36.3426 104.141Z" stroke="#CC3333" stroke-width="25" mask="url(#path-1-inside-1_133_739)"/>
<path d="M120.055 92.6135C118.391 92.6162 116.766 93.1122 115.384 94.0388C114.003 94.9655 112.927 96.2812 112.292 97.8195C111.658 99.3578 111.494 101.05 111.821 102.681C112.149 104.313 112.952 105.811 114.13 106.985C115.308 108.16 116.808 108.959 118.44 109.281C120.072 109.603 121.763 109.434 123.299 108.795C124.835 108.156 126.147 107.075 127.069 105.69C127.991 104.305 128.482 102.678 128.479 101.014C128.472 98.7834 127.581 96.6468 126.002 95.0723C124.423 93.4977 122.285 92.6135 120.055 92.6135ZM120.055 104.141C119.44 104.138 118.84 103.953 118.331 103.61C117.821 103.267 117.424 102.781 117.19 102.212C116.956 101.644 116.895 101.019 117.016 100.416C117.136 99.8135 117.433 99.2599 117.867 98.8253C118.302 98.3906 118.855 98.0944 119.458 97.9738C120.06 97.8533 120.685 97.9138 121.253 98.1478C121.821 98.3818 122.308 98.7789 122.651 99.2889C122.994 99.7989 123.178 100.399 123.181 101.014C123.182 101.425 123.102 101.832 122.946 102.212C122.789 102.592 122.559 102.937 122.268 103.228C121.978 103.518 121.633 103.749 121.253 103.905C120.873 104.062 120.466 104.142 120.055 104.141Z" stroke="#CC3333" stroke-width="25" mask="url(#path-1-inside-1_133_739)"/>
<path d="M127.711 41.2322L116.823 29.7052C116.575 29.4397 116.276 29.2275 115.943 29.0817C115.611 28.9359 115.252 28.8595 114.889 28.8573H102.703C102.001 28.8573 101.327 29.1365 100.83 29.6334C100.333 30.1304 100.054 30.8044 100.054 31.5072V48.8374C100.054 49.5402 100.333 50.2142 100.83 50.7112C101.327 51.2081 102.001 51.4873 102.703 51.4873H125.777C126.48 51.4873 127.153 51.2081 127.65 50.7112C128.147 50.2142 128.426 49.5402 128.426 48.8374V43.0607C128.423 42.3835 128.168 41.7319 127.711 41.2322ZM123.128 46.1875H105.352V34.157H113.75L123.128 44.0941V46.1875Z" stroke="#CC3333" stroke-width="25" mask="url(#path-1-inside-1_133_739)"/>
<path d="M150.228 52.0968L122.889 19.3177C122.371 18.6952 121.723 18.1927 120.991 17.845C120.26 17.4973 119.461 17.3126 118.651 17.3038H94.0405C92.5743 17.3107 91.17 17.8965 90.1332 18.9336C89.0964 19.9707 88.5108 21.3753 88.5039 22.842V57.7145H85.166V31.5072C85.166 30.8044 84.8869 30.1304 84.3901 29.6334C83.8932 29.1365 83.2194 28.8573 82.5168 28.8573H64.9532V2.64989C64.9532 1.94709 64.6741 1.27308 64.1772 0.776134C63.6804 0.279184 63.0066 0 62.304 0H33.4551C32.7525 0 32.0787 0.279184 31.5819 0.776134C31.0851 1.27308 30.806 1.94709 30.806 2.64989V28.8573H13.2688C12.5662 28.8573 11.8924 29.1365 11.3956 29.6334C10.8988 30.1304 10.6196 30.8044 10.6196 31.5072V57.7145H3.14912C2.44653 57.7145 1.77272 57.9937 1.27591 58.4907C0.779103 58.9876 0.5 59.6616 0.5 60.3644V89.2217C0.5 89.9245 0.779103 90.5985 1.27591 91.0954C1.77272 91.5924 2.44653 91.8716 3.14912 91.8716H18.62C17.2329 94.5584 16.474 97.5253 16.4006 100.548C16.3272 103.571 16.9413 106.572 18.1963 109.323C19.4514 112.074 21.3148 114.504 23.6458 116.429C25.9769 118.355 28.7147 119.725 31.6527 120.438C34.5906 121.15 37.652 121.186 40.6058 120.542C43.5596 119.898 46.3285 118.592 48.7038 116.721C51.0791 114.851 52.9985 112.465 54.3174 109.744C55.6362 107.023 56.32 104.038 56.317 101.014C56.3134 97.8294 55.5409 94.6931 54.0653 91.8716H102.332C100.944 94.5568 100.183 97.5226 100.108 100.545C100.033 103.567 100.645 106.567 101.899 109.318C103.152 112.069 105.014 114.499 107.344 116.425C109.674 118.351 112.411 119.722 115.348 120.434C118.286 121.147 121.346 121.183 124.299 120.54C127.253 119.896 130.021 118.59 132.395 116.719C134.77 114.849 136.689 112.463 138.006 109.742C139.324 107.022 140.007 104.037 140.003 101.014C140.008 97.8315 139.245 94.6951 137.778 91.8716H148.851C149.553 91.8716 150.227 91.5924 150.724 91.0954C151.221 90.5985 151.5 89.9245 151.5 89.2217V55.6476C151.498 54.3527 151.049 53.0982 150.228 52.0968ZM79.8677 34.157V57.7145H56.317V34.157H79.8677ZM36.1042 5.29977H59.6549V28.8573H36.1042V5.29977ZM51.0188 34.157V57.7145H44.7668V34.157H51.0188ZM15.9179 34.157H39.4686V57.7145H15.9179V34.157ZM36.3426 115.694C33.5055 115.699 30.7281 114.878 28.349 113.332C25.9698 111.786 24.0917 109.581 22.9433 106.986C21.7949 104.391 21.4259 101.517 21.8812 98.7161C22.3365 95.9149 23.5966 93.3066 25.5077 91.2091C25.6113 91.0999 25.7086 90.9849 25.7991 90.8646C27.4794 89.1184 29.5663 87.816 31.873 87.0742C34.1797 86.3323 36.6343 86.174 39.0172 86.6134C41.4 87.0529 43.6368 88.0763 45.5274 89.5923C47.418 91.1082 48.9033 93.0693 49.8506 95.3001C50.7979 97.531 51.1776 99.9619 50.9556 102.375C50.7336 104.789 49.917 107.11 48.5787 109.13C47.2404 111.151 45.4222 112.808 43.2869 113.953C41.1516 115.099 38.7657 115.697 36.3426 115.694ZM88.5039 86.5718H50.0916C46.3939 83.0327 41.4736 81.0574 36.3559 81.0574C31.2382 81.0574 26.3179 83.0327 22.6202 86.5718H5.79825V63.0143H88.5039V86.5718ZM120.055 115.694C117.155 115.697 114.319 114.839 111.906 113.23C109.494 111.62 107.612 109.331 106.5 106.652C105.388 103.973 105.095 101.024 105.658 98.1785C106.221 95.3328 107.615 92.7182 109.664 90.6651C111.713 88.612 114.324 87.2127 117.168 86.6442C120.012 86.0757 122.96 86.3635 125.641 87.4712C128.321 88.5789 130.613 90.4567 132.226 92.8673C133.839 95.2778 134.702 98.1128 134.705 101.014C134.707 104.903 133.165 108.634 130.418 111.387C127.671 114.14 123.943 115.689 120.055 115.694ZM146.202 75.0448H139.95V68.7911H146.202V75.0448ZM146.202 63.4913H139.95C138.546 63.4955 137.201 64.0552 136.208 65.0482C135.215 66.0412 134.656 67.3868 134.652 68.7911V75.0448C134.656 76.4491 135.215 77.7947 136.208 78.7877C137.201 79.7807 138.546 80.3404 139.95 80.3446H146.202V86.5718H133.777C130.084 83.0345 125.168 81.0599 120.055 81.0599C114.942 81.0599 110.026 83.0345 106.332 86.5718H93.8021V22.842C93.808 22.7808 93.835 22.7235 93.8785 22.6799C93.922 22.6364 93.9793 22.6094 94.0405 22.6035L118.81 22.7095L146.202 55.6476V63.4913Z" stroke="#CC3333" stroke-width="25" mask="url(#path-1-inside-1_133_739)"/>
</svg>
